<svg width="1166" height="149" viewBox="0 0 1166 149" fill="none" xmlns="http://www.w3.org/2000/svg">
<path d="M0.104334 4.76404H42.5329V24.3098H21.0803V128.236H42.5329V147.782H0.104334V4.76404ZM593.287 147.782H550.859V128.236H572.312V24.3098H550.859V4.76404H593.287V147.782Z" fill="#BFBFF9"/>
<path d="M132.491 97.0899V116H121.05C110.721 116 105.636 111.551 105.954 102.652C102.934 107.419 99.2794 110.915 94.9889 113.299C90.5394 115.841 85.2954 116.953 79.2569 116.953C70.0402 116.953 62.7304 114.888 57.1686 110.756C51.6068 106.624 48.9054 100.586 48.9054 92.9583C48.9054 84.3772 52.0836 77.703 58.4399 72.9358C64.7962 68.1685 74.1718 65.7849 86.4078 65.7849H102.616V61.8122C102.616 58.1573 101.186 55.2969 98.4848 53.0722C95.6245 50.8475 91.9696 49.7351 87.3612 49.7351C83.2296 49.7351 79.7336 50.6886 77.1911 52.4366C74.4897 54.3435 72.9006 56.7271 72.4238 59.7464H50.8123C51.4479 51.4831 55.2617 44.9679 61.9359 40.3595C68.61 35.7512 77.35 33.3676 88.4736 33.3676C99.915 33.3676 108.814 35.9101 115.17 40.9952C121.527 46.0803 124.705 53.549 124.705 63.0835V91.8459C124.705 93.9117 125.023 95.3419 125.976 95.9775C126.771 96.7721 128.042 97.0899 129.949 97.0899H132.491ZM102.616 80.7223H86.2489C81.4816 80.7223 77.8267 81.6758 75.2842 83.5827C72.7417 85.4896 71.4704 88.0321 71.4704 91.3692C71.4704 94.2295 72.4238 96.6132 74.6486 98.2022C76.8733 99.9502 79.7336 100.745 83.5474 100.745C89.2682 100.745 93.8765 99.1557 97.3725 95.8186C100.71 92.4815 102.458 88.0321 102.616 82.3114V80.7223ZM141.159 4.76404H163.565V116H141.159V4.76404ZM260.858 34.321V113.616C260.858 124.422 257.203 132.844 250.211 139.201C243.061 145.557 232.096 148.735 217.158 148.735C205.558 148.735 196.183 146.193 189.191 141.108C182.04 136.022 178.226 128.872 177.749 119.496H200.314C201.268 123.469 203.333 126.488 206.512 128.554C209.69 130.778 213.821 131.732 218.906 131.732C225.263 131.732 230.189 130.143 233.685 126.965C237.181 123.787 238.929 119.178 238.929 112.822V104.241C232.89 111.868 224.468 115.523 213.662 115.523C206.353 115.523 199.996 113.934 194.276 110.438C188.555 107.101 183.947 102.334 180.768 96.1364C177.59 89.939 176.001 82.6292 176.001 74.366C176.001 66.2616 177.59 59.1108 180.768 52.7544C183.947 46.557 188.555 41.7897 194.276 38.2937C199.996 34.9567 206.512 33.2087 213.821 33.2087C224.468 33.2087 232.89 37.3403 239.247 45.6035L241.154 34.321H260.858ZM233.367 91.2103C236.863 87.0786 238.77 81.5169 238.77 74.6838C238.77 67.8507 236.863 62.2889 233.367 57.8395C229.712 53.549 224.945 51.3242 218.906 51.3242C212.868 51.3242 207.942 53.549 204.287 57.8395C200.632 62.13 198.884 67.6918 198.884 74.5249C198.884 81.5169 200.632 87.0786 204.287 91.2103C207.942 95.5008 212.868 97.5666 218.906 97.5666C224.945 97.5666 229.712 95.5008 233.367 91.2103ZM293.642 111.868C287.127 108.372 282.042 103.446 278.546 97.0899C275.05 90.7335 273.302 83.4238 273.302 75.1605C273.302 66.8973 275.05 59.5875 278.546 53.2311C282.042 46.8748 287.127 42.1075 293.642 38.6116C300.157 35.1156 307.785 33.3676 316.366 33.3676C324.947 33.3676 332.416 35.1156 338.931 38.6116C345.446 42.1075 350.531 46.8748 354.027 53.2311C357.523 59.5875 359.43 66.8973 359.43 75.1605C359.43 83.5827 357.523 90.8925 354.027 97.2488C350.531 103.605 345.446 108.372 338.931 111.868C332.416 115.364 324.947 116.953 316.366 116.953C307.785 116.953 300.157 115.364 293.642 111.868ZM331.144 92.1637C334.799 87.8732 336.706 82.1525 336.706 75.1605C336.706 68.1685 334.799 62.6067 331.144 58.1573C327.489 53.8668 322.563 51.642 316.366 51.642C310.168 51.642 305.242 53.8668 301.587 58.1573C297.932 62.6067 296.184 68.1685 296.184 75.1605C296.184 82.1525 297.932 87.8732 301.587 92.1637C305.242 96.6132 310.168 98.679 316.366 98.679C322.563 98.679 327.489 96.6132 331.144 92.1637ZM371.763 4.76404H394.169V69.122L426.268 34.321H451.376L422.296 66.2616L452.965 116H427.063L406.405 82.947L394.169 96.1364V116H371.763V4.76404ZM481.493 3.96949C483.876 6.35312 485.148 9.37239 485.148 12.8684C485.148 16.5233 483.876 19.5425 481.493 21.9262C478.95 24.4687 475.931 25.5811 472.276 25.5811C468.462 25.5811 465.443 24.4687 462.901 21.9262C460.358 19.5425 459.246 16.5233 459.246 12.8684C459.246 9.37239 460.358 6.35312 462.901 3.96949C465.443 1.58587 468.462 0.314599 472.276 0.314599C475.931 0.314599 478.95 1.58587 481.493 3.96949ZM460.994 34.321H483.4V116H460.994V34.321ZM504.258 53.2311H490.75V34.321H504.258V11.4382H526.664V34.321H545.256V53.2311H526.664V88.9856C526.664 91.8459 527.141 93.9117 528.412 95.183C529.683 96.4543 531.749 97.0899 534.609 97.0899H546.21V116H527.617C512.044 116 504.258 108.213 504.258 92.6404V53.2311ZM652.584 30.6661C657.033 22.0851 663.39 15.5698 671.653 10.8026C679.916 6.19421 689.769 3.81059 701.051 3.81059C709.791 3.81059 717.736 5.55858 724.728 8.89566C731.72 12.3917 737.282 17.1589 741.573 23.1974C745.863 29.3949 748.565 36.3868 749.518 44.3323H726C724.411 38.1348 721.55 33.2087 717.101 29.5538C712.651 25.8989 707.09 23.992 700.415 23.992C694.218 23.992 688.815 25.5811 684.366 28.6003C679.757 31.7785 676.261 36.069 673.878 41.4719C671.335 47.0337 670.223 53.39 670.223 60.382C670.223 71.3467 672.765 80.0867 678.168 86.7608C683.571 93.435 690.881 96.7721 700.415 96.7721C707.248 96.7721 713.287 95.0241 718.69 91.2103C723.934 87.3965 727.112 81.8347 728.224 74.5249V73.0947H700.574V54.1846H750.313V116H733.786L731.244 102.175C727.907 106.624 723.457 110.12 718.054 112.822C712.492 115.682 706.136 116.953 698.826 116.953C688.338 116.953 678.963 114.729 671.017 109.961C663.072 105.353 656.874 98.679 652.425 90.0979C647.976 81.5169 645.91 71.6645 645.91 60.382C645.91 49.0995 648.134 39.2472 652.584 30.6661ZM848.045 97.0899V116H836.604C826.275 116 821.19 111.551 821.507 102.652C818.488 107.419 814.833 110.915 810.543 113.299C806.093 115.841 800.849 116.953 794.811 116.953C785.594 116.953 778.284 114.888 772.722 110.756C767.161 106.624 764.459 100.586 764.459 92.9583C764.459 84.3772 767.637 77.703 773.994 72.9358C780.35 68.1685 789.726 65.7849 801.962 65.7849H818.17V61.8122C818.17 58.1573 816.74 55.2969 814.039 53.0722C811.178 50.8475 807.523 49.7351 802.915 49.7351C798.783 49.7351 795.287 50.6886 792.745 52.4366C790.044 54.3435 788.454 56.7271 787.978 59.7464H766.366C767.002 51.4831 770.816 44.9679 777.49 40.3595C784.164 35.7512 792.904 33.3676 804.027 33.3676C815.469 33.3676 824.368 35.9101 830.724 40.9952C837.08 46.0803 840.259 53.549 840.259 63.0835V91.8459C840.259 93.9117 840.576 95.3419 841.53 95.9775C842.324 96.7721 843.596 97.0899 845.503 97.0899H848.045ZM818.17 80.7223H801.803C797.035 80.7223 793.381 81.6758 790.838 83.5827C788.296 85.4896 787.024 88.0321 787.024 91.3692C787.024 94.2295 787.978 96.6132 790.202 98.2022C792.427 99.9502 795.287 100.745 799.101 100.745C804.822 100.745 809.43 99.1557 812.926 95.8186C816.263 92.4815 818.011 88.0321 818.17 82.3114V80.7223ZM856.713 4.76404H879.119V116H856.713V4.76404ZM894.733 4.76404H917.139V116H894.733V4.76404ZM934.66 53.2311C938.156 46.8748 942.923 42.1075 949.121 38.6116C955.318 35.1156 962.469 33.3676 970.732 33.3676C978.996 33.3676 986.147 35.1156 992.503 38.2937C998.859 41.4719 1003.79 46.0803 1007.28 51.9599C1010.78 57.8395 1012.68 64.6725 1012.84 72.618C1012.84 75.4783 1012.53 78.0209 1012.21 80.2456H952.935V80.8812C953.411 86.9197 955.318 91.5281 958.655 94.8652C961.834 98.3612 966.442 99.9502 972.163 99.9502C976.612 99.9502 980.426 98.9968 983.445 97.0899C986.464 95.183 988.53 92.1637 989.484 88.3499H1011.57C1010.62 93.7528 1008.55 98.679 1005.37 102.97C1002.04 107.419 997.747 110.756 992.344 113.299C986.941 115.841 980.744 116.953 973.752 116.953C964.535 116.953 956.748 115.364 950.074 111.868C943.4 108.531 938.315 103.764 934.819 97.4077C931.323 91.0514 929.575 83.7416 929.575 75.3194C929.575 66.8973 931.164 59.5875 934.66 53.2311ZM990.437 65.626C989.642 60.6998 987.577 56.886 984.24 54.1846C980.903 51.4831 976.771 50.053 971.686 50.053C966.76 50.053 962.628 51.4831 959.291 54.3435C955.954 57.2039 954.047 60.8587 953.411 65.626H990.437ZM1074.83 34.321V54.6613H1065.93C1059.57 54.6613 1054.8 56.5682 1051.94 60.382C1048.92 64.1958 1047.49 69.4398 1047.49 75.9551V116H1025.09V34.321H1045.43L1047.49 46.557C1049.88 42.5843 1052.9 39.565 1056.55 37.4992C1060.05 35.4334 1064.97 34.321 1071.01 34.321H1074.83ZM1101.97 34.321L1121.83 92.9583L1141.22 34.321H1165.21L1128.98 127.6C1127.07 132.685 1125.17 136.499 1123.58 139.36C1121.83 142.22 1119.6 144.286 1117.06 145.716C1114.52 147.146 1111.18 147.782 1107.05 147.782H1085.28V128.872H1097.68C1100.54 128.872 1102.6 128.395 1103.87 127.441C1105.14 126.488 1106.26 124.74 1107.53 121.88L1109.59 116.477L1078.13 34.321H1101.97Z" fill="#2D2DF1"/>
</svg>
