<svg width="891" height="115" viewBox="0 0 891 115" fill="none" xmlns="http://www.w3.org/2000/svg">
<path d="M0.192478 4.00521H32.6119V18.94H16.2201V98.3494H32.6119V113.284H0.192478V4.00521ZM453.44 113.284H421.021V98.3494H437.413V18.94H421.021V4.00521H453.44V113.284ZM498.749 23.7969C502.148 17.2401 507.005 12.2618 513.319 8.61921C519.633 5.098 527.161 3.27668 535.782 3.27668C542.46 3.27668 548.531 4.61231 553.874 7.16216C559.216 9.83342 563.466 13.4761 566.744 18.0901C570.023 22.8255 572.087 28.168 572.815 34.2391H554.845C553.631 29.5036 551.445 25.7396 548.046 22.9469C544.646 20.1542 540.396 18.6972 535.296 18.6972C530.561 18.6972 526.433 19.9114 523.033 22.2184C519.512 24.6468 516.84 27.9252 515.019 32.0535C513.076 36.3032 512.226 41.1601 512.226 46.5026C512.226 54.8807 514.169 61.5588 518.297 66.6585C522.426 71.7582 528.011 74.308 535.296 74.308C540.517 74.308 545.131 72.9724 549.26 70.0583C553.267 67.1442 555.695 62.8945 556.545 57.3091V56.2163H535.418V41.7672H573.423V89H560.795L558.852 78.4364C556.302 81.8362 552.902 84.5074 548.774 86.5716C544.524 88.7572 539.667 89.7285 534.082 89.7285C526.068 89.7285 518.904 88.0286 512.833 84.386C506.762 80.8648 502.027 75.7651 498.627 69.2084C495.227 62.6516 493.649 55.1235 493.649 46.5026C493.649 37.8817 495.349 30.3536 498.749 23.7969ZM648.099 74.5509V89H639.357C631.465 89 627.579 85.6002 627.822 78.8006C625.515 82.4433 622.722 85.1145 619.444 86.9358C616.044 88.8786 612.037 89.7285 607.423 89.7285C600.381 89.7285 594.796 88.1501 590.546 84.9931C586.296 81.8362 584.232 77.2222 584.232 71.3939C584.232 64.8372 586.66 59.7375 591.517 56.0949C596.374 52.4522 603.538 50.6309 612.887 50.6309H625.272V47.5954C625.272 44.8027 624.179 42.6171 622.115 40.9172C619.93 39.2173 617.137 38.3674 613.616 38.3674C610.459 38.3674 607.788 39.0959 605.845 40.4315C603.781 41.8886 602.566 43.7099 602.202 46.0169H585.689C586.175 39.703 589.089 34.7248 594.188 31.2035C599.288 27.6823 605.966 25.861 614.466 25.861C623.208 25.861 630.008 27.8038 634.865 31.6892C639.721 35.5747 642.15 41.2815 642.15 48.5668V70.544C642.15 72.1225 642.393 73.2153 643.121 73.7009C643.728 74.308 644.7 74.5509 646.157 74.5509H648.099ZM625.272 62.0445H612.766C609.123 62.0445 606.331 62.773 604.388 64.2301C602.445 65.6871 601.474 67.6299 601.474 70.1797C601.474 72.3653 602.202 74.1866 603.902 75.4008C605.602 76.7365 607.788 77.3436 610.702 77.3436C615.073 77.3436 618.594 76.1294 621.265 73.5795C623.815 71.0297 625.151 67.6299 625.272 63.2587V62.0445ZM654.723 4.00521H671.843V89H654.723V4.00521ZM683.773 4.00521H700.894V89H683.773V4.00521ZM714.282 41.0387C716.953 36.1818 720.595 32.5392 725.331 29.8679C730.066 27.1966 735.53 25.861 741.844 25.861C748.158 25.861 753.622 27.1966 758.479 29.6251C763.336 32.0535 767.1 35.5747 769.771 40.0673C772.442 44.5599 773.899 49.781 774.021 55.852C774.021 58.0376 773.778 59.9803 773.535 61.6802H728.245V62.1659C728.609 66.7799 730.066 70.3011 732.616 72.851C735.045 75.5223 738.566 76.7365 742.937 76.7365C746.337 76.7365 749.251 76.0079 751.558 74.5509C753.865 73.0938 755.443 70.7868 756.172 67.8727H773.049C772.321 72.001 770.742 75.7651 768.314 79.0435C765.764 82.4433 762.486 84.9931 758.357 86.9358C754.229 88.8786 749.494 89.7285 744.151 89.7285C737.109 89.7285 731.159 88.5143 726.059 85.8431C720.96 83.2932 717.074 79.6506 714.403 74.7937C711.732 69.9369 710.396 64.3515 710.396 57.9162C710.396 51.4809 711.61 45.8955 714.282 41.0387ZM756.9 50.5095C756.293 46.7454 754.715 43.8313 752.165 41.7672C749.615 39.703 746.458 38.6102 742.573 38.6102C738.809 38.6102 735.652 39.703 733.102 41.8886C730.552 44.0742 729.095 46.8669 728.609 50.5095H756.9ZM821.382 26.5895V42.1314H814.582C809.725 42.1314 806.083 43.5885 803.897 46.5026C801.59 49.4167 800.497 53.4236 800.497 58.4019V89H783.377V26.5895H798.919L800.497 35.939C802.318 32.9034 804.625 30.5964 807.418 29.018C810.089 27.4395 813.853 26.5895 818.467 26.5895H821.382ZM842.119 26.5895L857.297 71.3939L872.11 26.5895H890.445L862.761 97.8637C861.304 101.749 859.846 104.663 858.632 106.849C857.297 109.034 855.597 110.613 853.654 111.706C851.711 112.799 849.161 113.284 846.004 113.284H829.37V98.8351H838.841C841.026 98.8351 842.605 98.4708 843.576 97.7423C844.547 97.0138 845.397 95.6782 846.369 93.4926L847.947 89.3643L823.906 26.5895H842.119Z" fill="#A2EAE8"/>
<path d="M101.349 74.5509V89H92.6063C84.7139 89 80.8284 85.6002 81.0713 78.8006C78.7643 82.4433 75.9716 85.1145 72.6932 86.9358C69.2934 88.8786 65.2865 89.7285 60.6725 89.7285C53.6301 89.7285 48.0447 88.1501 43.795 84.9931C39.5453 81.8362 37.4811 77.2222 37.4811 71.3939C37.4811 64.8372 39.9095 59.7375 44.7664 56.0949C49.6232 52.4522 56.7871 50.6309 66.1365 50.6309H78.5214V47.5954C78.5214 44.8027 77.4286 42.6171 75.3645 40.9172C73.1789 39.2173 70.3862 38.3674 66.865 38.3674C63.7081 38.3674 61.0368 39.0959 59.0941 40.4315C57.0299 41.8886 55.8157 43.7099 55.4514 46.0169H38.9381C39.4238 39.703 42.3379 34.7248 47.4376 31.2035C52.5373 27.6823 59.2155 25.861 67.715 25.861C76.4573 25.861 83.2569 27.8038 88.1137 31.6892C92.9706 35.5747 95.399 41.2815 95.399 48.5668V70.544C95.399 72.1225 95.6418 73.2153 96.3703 73.7009C96.9775 74.308 97.9488 74.5509 99.4059 74.5509H101.349ZM78.5214 62.0445H66.0151C62.3724 62.0445 59.5797 62.773 57.637 64.2301C55.6943 65.6871 54.7229 67.6299 54.7229 70.1797C54.7229 72.3653 55.4514 74.1866 57.1513 75.4008C58.8512 76.7365 61.0368 77.3436 63.9509 77.3436C68.3221 77.3436 71.8433 76.1294 74.5145 73.5795C77.0644 71.0297 78.4 67.6299 78.5214 63.2587V62.0445ZM107.972 4.00521H125.092V89H107.972V4.00521ZM199.433 26.5895V87.1787C199.433 95.4353 196.64 101.871 191.298 106.727C185.834 111.584 177.456 114.013 166.042 114.013C157.179 114.013 150.015 112.07 144.672 108.185C139.208 104.299 136.294 98.8351 135.93 91.6713H153.172C153.9 94.7068 155.479 97.0138 157.907 98.5923C160.336 100.292 163.493 101.021 167.378 101.021C172.235 101.021 175.999 99.8065 178.67 97.3781C181.341 94.9496 182.677 91.4284 182.677 86.5716V80.0148C178.063 85.8431 171.628 88.6357 163.371 88.6357C157.786 88.6357 152.929 87.4215 148.558 84.7503C144.187 82.2004 140.665 78.5578 138.237 73.8224C135.808 69.0869 134.594 63.5016 134.594 57.1877C134.594 50.9952 135.808 45.5312 138.237 40.6744C140.665 35.939 144.187 32.2963 148.558 29.6251C152.929 27.0752 157.907 25.7396 163.493 25.7396C171.628 25.7396 178.063 28.8965 182.92 35.2104L184.377 26.5895H199.433ZM178.427 70.0583C181.099 66.9014 182.556 62.6516 182.556 57.4305C182.556 52.2094 181.099 47.9597 178.427 44.5599C175.635 41.2815 171.992 39.5816 167.378 39.5816C162.764 39.5816 159 41.2815 156.207 44.5599C153.415 47.8382 152.079 52.088 152.079 57.3091C152.079 62.6516 153.415 66.9014 156.207 70.0583C159 73.3367 162.764 74.9151 167.378 74.9151C171.992 74.9151 175.635 73.3367 178.427 70.0583ZM224.483 85.8431C219.505 83.1718 215.619 79.4077 212.948 74.5509C210.277 69.694 208.941 64.1087 208.941 57.7948C208.941 51.4809 210.277 45.8955 212.948 41.0387C215.619 36.1818 219.505 32.5392 224.483 29.8679C229.461 27.1966 235.289 25.861 241.846 25.861C248.403 25.861 254.11 27.1966 259.088 29.8679C264.066 32.5392 267.952 36.1818 270.623 41.0387C273.294 45.8955 274.751 51.4809 274.751 57.7948C274.751 64.2301 273.294 69.8155 270.623 74.6723C267.952 79.5292 264.066 83.1718 259.088 85.8431C254.11 88.5143 248.403 89.7285 241.846 89.7285C235.289 89.7285 229.461 88.5143 224.483 85.8431ZM253.138 70.7868C255.931 67.5085 257.388 63.1373 257.388 57.7948C257.388 52.4522 255.931 48.2025 253.138 44.8027C250.346 41.5243 246.582 39.8244 241.846 39.8244C237.111 39.8244 233.347 41.5243 230.554 44.8027C227.761 48.2025 226.426 52.4522 226.426 57.7948C226.426 63.1373 227.761 67.5085 230.554 70.7868C233.347 74.1866 237.111 75.7651 241.846 75.7651C246.582 75.7651 250.346 74.1866 253.138 70.7868ZM284.175 4.00521H301.295V53.1808L325.822 26.5895H345.007L322.787 50.9952L346.221 89H326.429L310.644 63.7444L301.295 73.8224V89H284.175V4.00521ZM368.019 3.3981C369.84 5.21942 370.812 7.52642 370.812 10.1977C370.812 12.9904 369.84 15.2974 368.019 17.1187C366.076 19.0614 363.769 19.9114 360.976 19.9114C358.062 19.9114 355.755 19.0614 353.813 17.1187C351.87 15.2974 351.02 12.9904 351.02 10.1977C351.02 7.52642 351.87 5.21942 353.813 3.3981C355.755 1.57678 358.062 0.605414 360.976 0.605414C363.769 0.605414 366.076 1.57678 368.019 3.3981ZM352.355 26.5895H369.476V89H352.355V26.5895ZM385.413 41.0387H375.093V26.5895H385.413V9.10489H402.534V26.5895H416.74V41.0387H402.534V68.3584C402.534 70.544 402.898 72.1225 403.869 73.0938C404.841 74.0652 406.419 74.5509 408.605 74.5509H417.468V89H403.262C391.363 89 385.413 83.0504 385.413 71.1511V41.0387Z" fill="white"/>
</svg>
