<svg width="1166" height="149" viewBox="0 0 1166 149" fill="none" xmlns="http://www.w3.org/2000/svg">
<path d="M0.104334 136.658V-0.00321409H42.5329V19.5425H21.2392V117.112H42.5329V136.658H0.104334ZM593.912 -0.00321409V136.658H551.483V117.112H572.777V19.5425H551.483V-0.00321409H593.912Z" fill="#BFBFF9"/>
<path d="M130.104 97.0899H132.646V116H121.205C109.605 116 105.95 110.438 106.109 102.652C100.388 111.709 92.1248 116.953 79.4121 116.953C61.7732 116.953 49.0606 108.531 49.0606 92.9583C49.0606 75.6372 62.0911 65.7849 86.563 65.7849H102.772V61.8122C102.772 54.5024 97.5277 49.7351 88.1521 49.7351C79.4121 49.7351 73.5325 53.7079 72.579 59.7464H50.9675C52.5566 43.8555 67.1761 33.3676 88.7877 33.3676C111.671 33.3676 124.86 43.5377 124.86 63.0835V92.0048C124.86 96.2953 126.608 97.0899 130.104 97.0899ZM102.772 82.3114V80.7223H86.4041C77.0285 80.7223 71.6256 84.5361 71.6256 91.3692C71.6256 97.0899 76.2339 100.745 83.7026 100.745C95.4619 100.745 102.613 93.435 102.772 82.3114ZM141.314 116V4.76404H163.721V116H141.314ZM239.402 45.6035L241.309 34.321H261.013V113.616C261.013 133.798 248.619 148.735 217.314 148.735C194.59 148.735 179.017 138.406 177.904 119.496H200.469C202.535 127.283 208.733 131.732 219.062 131.732C231.615 131.732 239.084 125.535 239.084 112.822V104.241C233.681 111.074 225.577 115.523 214.135 115.523C192.206 115.682 176.156 99.6324 176.156 74.366C176.156 49.4173 192.206 33.2087 213.977 33.2087C225.736 33.2087 233.999 38.4526 239.402 45.6035ZM219.062 97.5666C231.298 97.5666 238.925 88.191 238.925 74.6838C238.925 61.0177 231.298 51.3242 219.062 51.3242C206.826 51.3242 199.039 60.8587 199.039 74.5249C199.039 88.191 206.826 97.5666 219.062 97.5666ZM316.521 116.953C290.46 116.953 273.457 100.268 273.457 75.1605C273.457 50.053 290.46 33.3676 316.521 33.3676C342.582 33.3676 359.585 50.053 359.585 75.1605C359.585 100.427 342.582 116.953 316.521 116.953ZM316.521 98.679C329.075 98.679 336.861 88.9856 336.861 75.1605C336.861 61.3355 329.075 51.642 316.521 51.642C303.967 51.642 296.34 61.3355 296.34 75.1605C296.34 88.9856 303.967 98.679 316.521 98.679ZM371.918 116V4.76404H394.324V68.9631L426.265 34.321H451.531L422.133 66.4205L453.12 116H427.218L406.56 82.947L394.324 96.1364V116H371.918ZM471.5 25.5811C464.19 25.5811 458.47 20.1782 458.47 13.0273C458.47 5.71749 464.19 0.314599 471.5 0.314599C478.81 0.314599 484.531 5.71749 484.531 13.0273C484.531 20.1782 478.81 25.5811 471.5 25.5811ZM460.218 116V34.321H482.783V116H460.218ZM504.117 92.6404V53.2311H490.61V34.321H504.117V11.4382H526.524V34.321H545.275V53.2311H526.524V88.9856C526.524 94.7063 528.748 97.0899 534.628 97.0899H545.751V116H527.477C511.904 116 504.117 108.213 504.117 92.6404Z" fill="#001324"/>
<path d="M699.447 116.953C667.665 116.953 646.531 94.5474 646.531 60.382C646.531 26.2167 667.506 3.81059 701.672 3.81059C728.527 3.81059 747.437 20.3371 750.298 44.3323H726.461C723.601 32.0963 714.702 23.992 701.036 23.992C682.444 23.992 670.844 38.9294 670.844 60.382C670.844 81.8347 681.967 96.7721 701.036 96.7721C713.749 96.7721 726.62 90.0979 728.845 74.5249V73.0947H701.195V54.1846H750.933V116H734.248L731.864 102.652C725.985 110.438 715.179 116.953 699.447 116.953ZM846.123 97.0899H848.666V116H837.224C825.624 116 821.969 110.438 822.128 102.652C816.407 111.709 808.144 116.953 795.431 116.953C777.793 116.953 765.08 108.531 765.08 92.9583C765.08 75.6372 778.11 65.7849 802.582 65.7849H818.791V61.8122C818.791 54.5024 813.547 49.7351 804.171 49.7351C795.431 49.7351 789.552 53.7079 788.598 59.7464H766.987C768.576 43.8555 783.196 33.3676 804.807 33.3676C827.69 33.3676 840.879 43.5377 840.879 63.0835V92.0048C840.879 96.2953 842.627 97.0899 846.123 97.0899ZM818.791 82.3114V80.7223H802.423C793.048 80.7223 787.645 84.5361 787.645 91.3692C787.645 97.0899 792.253 100.745 799.722 100.745C811.481 100.745 818.632 93.435 818.791 82.3114ZM857.334 116V4.76404H879.74V116H857.334ZM895.354 116V4.76404H917.76V116H895.354ZM973.737 116.953C946.563 116.953 930.196 100.586 930.196 75.3194C930.196 49.8941 946.881 33.3676 972.148 33.3676C996.62 33.3676 1013.15 48.6228 1013.46 72.618C1013.46 75.0016 1013.3 77.703 1012.83 80.2456H953.555V81.3579C954.032 92.9583 961.501 99.9502 972.783 99.9502C981.841 99.9502 988.197 95.9775 990.104 88.3499H1012.19C1009.65 104.241 995.507 116.953 973.737 116.953ZM954.032 65.626H990.899C989.31 55.6148 982.477 50.053 972.307 50.053C962.613 50.053 955.303 55.9326 954.032 65.626ZM1071.63 34.321H1075.45V54.6613H1066.55C1053.2 54.6613 1048.11 63.5602 1048.11 75.9551V116H1025.71V34.321H1046.05L1048.11 46.557C1052.56 39.2472 1058.92 34.321 1071.63 34.321ZM1110.21 116.477L1078.75 34.321H1102.59L1122.45 92.4815L1141.84 34.321H1165.83L1129.6 127.6C1124.52 141.108 1120.38 147.782 1107.67 147.782H1085.9V128.872H1098.3C1104.02 128.872 1105.92 127.441 1108.15 121.88L1110.21 116.477Z" fill="#2D2DF1"/>
</svg>
