<svg width="1167" height="149" viewBox="0 0 1167 149" fill="none" xmlns="http://www.w3.org/2000/svg">
<path d="M0.771571 136.658V-0.00321409H43.2001V19.5425H21.9064V117.112H43.2001V136.658H0.771571ZM594.579 -0.00321409V136.658H552.151V117.112H573.444V19.5425H552.151V-0.00321409H594.579Z" fill="#8BE4E2"/>
<path d="M130.771 97.0899H133.314V116H121.872C110.272 116 106.617 110.438 106.776 102.652C101.055 111.709 92.792 116.953 80.0793 116.953C62.4405 116.953 49.7278 108.531 49.7278 92.9583C49.7278 75.6372 62.7583 65.7849 87.2302 65.7849H103.439V61.8122C103.439 54.5024 98.1949 49.7351 88.8193 49.7351C80.0793 49.7351 74.1997 53.7079 73.2463 59.7464H51.6347C53.2238 43.8555 67.8434 33.3676 89.4549 33.3676C112.338 33.3676 125.527 43.5377 125.527 63.0835V92.0048C125.527 96.2953 127.275 97.0899 130.771 97.0899ZM103.439 82.3114V80.7223H87.0713C77.6957 80.7223 72.2928 84.5361 72.2928 91.3692C72.2928 97.0899 76.9012 100.745 84.3699 100.745C96.1291 100.745 103.28 93.435 103.439 82.3114ZM141.982 116V4.76404H164.388V116H141.982ZM240.069 45.6035L241.976 34.321H261.681V113.616C261.681 133.798 249.286 148.735 217.981 148.735C195.257 148.735 179.684 138.406 178.572 119.496H201.137C203.202 127.283 209.4 131.732 219.729 131.732C232.283 131.732 239.751 125.535 239.751 112.822V104.241C234.348 111.074 226.244 115.523 214.803 115.523C192.873 115.682 176.824 99.6324 176.824 74.366C176.824 49.4173 192.873 33.2087 214.644 33.2087C226.403 33.2087 234.666 38.4526 240.069 45.6035ZM219.729 97.5666C231.965 97.5666 239.592 88.191 239.592 74.6838C239.592 61.0177 231.965 51.3242 219.729 51.3242C207.493 51.3242 199.706 60.8587 199.706 74.5249C199.706 88.191 207.493 97.5666 219.729 97.5666ZM317.188 116.953C291.127 116.953 274.124 100.268 274.124 75.1605C274.124 50.053 291.127 33.3676 317.188 33.3676C343.249 33.3676 360.252 50.053 360.252 75.1605C360.252 100.427 343.249 116.953 317.188 116.953ZM317.188 98.679C329.742 98.679 337.529 88.9856 337.529 75.1605C337.529 61.3355 329.742 51.642 317.188 51.642C304.634 51.642 297.007 61.3355 297.007 75.1605C297.007 88.9856 304.634 98.679 317.188 98.679ZM372.585 116V4.76404H394.991V68.9631L426.932 34.321H452.198L422.8 66.4205L453.787 116H427.885L407.227 82.947L394.991 96.1364V116H372.585ZM472.167 25.5811C464.858 25.5811 459.137 20.1782 459.137 13.0273C459.137 5.71749 464.858 0.314599 472.167 0.314599C479.477 0.314599 485.198 5.71749 485.198 13.0273C485.198 20.1782 479.477 25.5811 472.167 25.5811ZM460.885 116V34.321H483.45V116H460.885ZM504.785 92.6404V53.2311H491.277V34.321H504.785V11.4382H527.191V34.321H545.942V53.2311H527.191V88.9856C527.191 94.7063 529.415 97.0899 535.295 97.0899H546.419V116H528.144C512.571 116 504.785 108.213 504.785 92.6404Z" fill="white"/>
<path d="M700.114 116.953C668.333 116.953 647.198 94.5474 647.198 60.382C647.198 26.2167 668.174 3.81059 702.339 3.81059C729.195 3.81059 748.105 20.3371 750.965 44.3323H727.129C724.268 32.0963 715.369 23.992 701.703 23.992C683.111 23.992 671.511 38.9294 671.511 60.382C671.511 81.8347 682.634 96.7721 701.703 96.7721C714.416 96.7721 727.288 90.0979 729.512 74.5249V73.0947H701.862V54.1846H751.601V116H734.915L732.532 102.652C726.652 110.438 715.846 116.953 700.114 116.953ZM846.791 97.0899H849.333V116H837.892C826.291 116 822.636 110.438 822.795 102.652C817.075 111.709 808.811 116.953 796.099 116.953C778.46 116.953 765.747 108.531 765.747 92.9583C765.747 75.6372 778.778 65.7849 803.25 65.7849H819.458V61.8122C819.458 54.5024 814.214 49.7351 804.839 49.7351C796.099 49.7351 790.219 53.7079 789.266 59.7464H767.654C769.243 43.8555 783.863 33.3676 805.474 33.3676C828.357 33.3676 841.547 43.5377 841.547 63.0835V92.0048C841.547 96.2953 843.295 97.0899 846.791 97.0899ZM819.458 82.3114V80.7223H803.091C793.715 80.7223 788.312 84.5361 788.312 91.3692C788.312 97.0899 792.921 100.745 800.389 100.745C812.148 100.745 819.299 93.435 819.458 82.3114ZM858.001 116V4.76404H880.407V116H858.001ZM896.021 116V4.76404H918.427V116H896.021ZM974.404 116.953C947.231 116.953 930.863 100.586 930.863 75.3194C930.863 49.8941 947.548 33.3676 972.815 33.3676C997.287 33.3676 1013.81 48.6228 1014.13 72.618C1014.13 75.0016 1013.97 77.703 1013.5 80.2456H954.223V81.3579C954.699 92.9583 962.168 99.9502 973.451 99.9502C982.508 99.9502 988.865 95.9775 990.772 88.3499H1012.86C1010.32 104.241 996.174 116.953 974.404 116.953ZM954.699 65.626H991.566C989.977 55.6148 983.144 50.053 972.974 50.053C963.28 50.053 955.971 55.9326 954.699 65.626ZM1072.3 34.321H1076.11V54.6613H1067.22C1053.87 54.6613 1048.78 63.5602 1048.78 75.9551V116H1026.38V34.321H1046.72L1048.78 46.557C1053.23 39.2472 1059.59 34.321 1072.3 34.321ZM1110.88 116.477L1079.42 34.321H1103.25L1123.12 92.4815L1142.5 34.321H1166.5L1130.27 127.6C1125.18 141.108 1121.05 147.782 1108.34 147.782H1086.57V128.872H1098.96C1104.68 128.872 1106.59 127.441 1108.82 121.88L1110.88 116.477Z" fill="#17CAC6"/>
</svg>
