<svg width="2738" height="1337" viewBox="400 400 1900 500" fill="none" xmlns="http://www.w3.org/2000/svg">
<path d="M445.291 445.508H577.453V506.392H510.63V830.114H577.453V890.998H445.291V445.508ZM2293.01 890.998H2160.85V830.114H2227.67V506.392H2160.85V445.508H2293.01V890.998Z" fill="#A9A9F6"/>
<path d="M857.667 733.096V792H822.028C789.853 792 774.014 778.14 775.004 750.421C765.599 765.271 754.214 776.16 740.85 783.585C726.99 791.505 710.655 794.97 691.846 794.97C663.136 794.97 640.367 788.535 623.042 775.665C605.718 762.796 597.303 743.986 597.303 720.227C597.303 693.497 607.203 672.708 627.002 657.858C646.802 643.009 676.006 635.584 714.12 635.584H764.609V623.209C764.609 611.824 760.154 602.914 751.739 595.985C742.83 589.055 731.445 585.59 717.09 585.59C704.22 585.59 693.331 588.56 685.411 594.005C676.996 599.945 672.046 607.369 670.561 616.774H603.243C605.223 591.035 617.102 570.74 637.892 556.386C658.682 542.031 685.906 534.606 720.555 534.606C756.194 534.606 783.914 542.526 803.713 558.366C823.513 574.205 833.412 597.47 833.412 627.169V716.762C833.412 723.197 834.402 727.652 837.372 729.631C839.847 732.106 843.807 733.096 849.747 733.096H857.667ZM764.609 682.113H713.625C698.776 682.113 687.391 685.083 679.471 691.022C671.551 696.962 667.591 704.882 667.591 715.277C667.591 724.187 670.561 731.611 677.491 736.561C684.421 742.006 693.331 744.481 705.21 744.481C723.03 744.481 737.385 739.531 748.274 729.136C758.669 718.742 764.114 704.882 764.609 687.062V682.113ZM884.667 445.508H954.46V792H884.667V445.508ZM1257.52 537.576V784.575C1257.52 818.234 1246.14 844.469 1224.36 864.268C1202.08 884.068 1167.93 893.968 1121.4 893.968C1085.26 893.968 1056.06 886.048 1034.28 870.208C1012.01 854.369 1000.13 832.094 998.642 802.89H1068.93C1071.9 815.264 1078.33 824.669 1088.23 831.104C1098.13 838.034 1111 841.004 1126.84 841.004C1146.64 841.004 1161.99 836.054 1172.88 826.154C1183.77 816.254 1189.21 801.9 1189.21 782.1V755.371C1170.4 779.13 1144.17 790.515 1110.51 790.515C1087.74 790.515 1067.94 785.565 1050.12 774.675C1032.3 764.281 1017.95 749.431 1008.05 730.126C998.147 710.822 993.197 688.052 993.197 662.313C993.197 637.069 998.147 614.794 1008.05 594.995C1017.95 575.69 1032.3 560.84 1050.12 549.951C1067.94 539.556 1088.23 534.111 1111 534.111C1144.17 534.111 1170.4 546.981 1190.2 572.72L1196.14 537.576H1257.52ZM1171.89 714.782C1182.78 701.912 1188.72 684.588 1188.72 663.303C1188.72 642.019 1182.78 624.694 1171.89 610.834C1160.5 597.47 1145.65 590.54 1126.84 590.54C1108.03 590.54 1092.69 597.47 1081.3 610.834C1069.92 624.199 1064.48 641.524 1064.48 662.808C1064.48 684.588 1069.92 701.912 1081.3 714.782C1092.69 728.147 1108.03 734.581 1126.84 734.581C1145.65 734.581 1160.5 728.147 1171.89 714.782ZM1359.64 779.13C1339.34 768.241 1323.5 752.896 1312.62 733.096C1301.73 713.297 1296.28 690.527 1296.28 664.788C1296.28 639.049 1301.73 616.279 1312.62 596.48C1323.5 576.68 1339.34 561.83 1359.64 550.941C1379.93 540.051 1403.69 534.606 1430.42 534.606C1457.15 534.606 1480.42 540.051 1500.71 550.941C1521.01 561.83 1536.84 576.68 1547.73 596.48C1558.62 616.279 1564.56 639.049 1564.56 664.788C1564.56 691.022 1558.62 713.792 1547.73 733.591C1536.84 753.391 1521.01 768.241 1500.71 779.13C1480.42 790.02 1457.15 794.97 1430.42 794.97C1403.69 794.97 1379.93 790.02 1359.64 779.13ZM1476.46 717.752C1487.84 704.387 1493.78 686.567 1493.78 664.788C1493.78 643.009 1487.84 625.684 1476.46 611.824C1465.07 598.46 1449.73 591.53 1430.42 591.53C1411.12 591.53 1395.77 598.46 1384.39 611.824C1373 625.684 1367.56 643.009 1367.56 664.788C1367.56 686.567 1373 704.387 1384.39 717.752C1395.77 731.611 1411.12 738.046 1430.42 738.046C1449.73 738.046 1465.07 731.611 1476.46 717.752ZM1602.98 445.508H1672.77V645.978L1772.76 537.576H1850.97L1760.39 637.069L1855.92 792H1775.24L1710.89 689.042L1672.77 730.126V792H1602.98V445.508ZM1944.78 443.033C1952.21 450.458 1956.17 459.863 1956.17 470.753C1956.17 482.137 1952.21 491.542 1944.78 498.967C1936.86 506.887 1927.46 510.352 1916.07 510.352C1904.19 510.352 1894.79 506.887 1886.87 498.967C1878.95 491.542 1875.48 482.137 1875.48 470.753C1875.48 459.863 1878.95 450.458 1886.87 443.033C1894.79 435.608 1904.19 431.649 1916.07 431.649C1927.46 431.649 1936.86 435.608 1944.78 443.033ZM1880.93 537.576H1950.72V792H1880.93V537.576ZM2015.69 596.48H1973.62V537.576H2015.69V466.298H2085.49V537.576H2143.4V596.48H2085.49V707.852C2085.49 716.762 2086.97 723.197 2090.93 727.157C2094.89 731.116 2101.32 733.096 2110.23 733.096H2146.37V792H2088.46C2039.95 792 2015.69 767.746 2015.69 719.237V596.48Z" fill="#2D2DF1"/>
</svg>
